# xmcd
#
# Track frame offsets:
#	150
#	16914
#	38025
#	59851
#	77638
#	103425
#	125795
#	143958
#	159134
#	175081
#	200166
#	215156
#
# Disc length: 3203 seconds
#
# Revision: 1
# Processed by: cddbd v1.5.2PL0 Copyright (c) Steve Scherf et al.
# Submitted via: audiograbber 1.83.01
#
DISCID=b50c810c
DTITLE=Dr. Aftershave - live
DYEAR=1996
DGENRE=R&B
TTITLE0=Shakey Ground
TTITLE1=Mustang Sally
TTITLE2=Easy
TTITLE3=Spinning Wheel
TTITLE4=Sledgehammer
TTITLE5=Tick Tock
TTITLE6=Just A Gigolo/I Ain't Got Nobody (Medley)
TTITLE7=Soul Man
TTITLE8=(Sittin' On) The Dock Of The Bay
TTITLE9=Everybody Needs Somebody To Love
TTITLE10=I Got You (I Feel Good)
TTITLE11=When A Man Loves A Woman
EXTD=
EXTT0=
EXTT1=
EXTT2=
EXTT3=
EXTT4=
EXTT5=
EXTT6=
EXTT7=
EXTT8=
EXTT9=
EXTT10=
EXTT11=
PLAYORDER=
